<svg width="28" height="28" viewBox="0 0 28 28" fill="none" xmlns="http://www.w3.org/2000/svg">
<circle cx="14" cy="14" r="14" fill="#0F1535"/>
<path d="M14.5533 11.0558C13.7714 11.0558 13.1367 11.802 13.1367 12.7224C13.1367 13.6428 13.7714 14.3896 14.5533 14.3896C15.3362 14.3896 15.97 13.6434 15.97 12.7224C15.97 11.8015 15.3357 11.0558 14.5533 11.0558ZM14.5533 13.8335C14.033 13.8335 13.6089 13.3351 13.6089 12.7219C13.6089 12.1086 14.0325 11.6108 14.5533 11.6108C15.0746 11.6108 15.4978 12.1091 15.4978 12.7219C15.4978 13.3346 15.0742 13.8335 14.5533 13.8335Z" fill="white"/>
<path d="M13.0572 8.55554C10.7561 8.55554 8.89062 10.421 8.89062 12.7221C8.89062 15.0232 10.7561 16.8887 13.0572 16.8887H16.0571C18.3582 16.8887 20.2237 15.0232 20.2237 12.7221C20.2237 10.421 18.3582 8.55554 16.0571 8.55554H13.0572ZM19.7519 10.4351V11.3331C19.7519 14.0945 17.5133 16.3331 14.7519 16.3331H12.9743C10.98 16.3331 9.36329 14.7164 9.36329 12.7221C9.36329 10.7278 10.98 9.11108 12.9743 9.11108H18.4279C19.1591 9.11108 19.7519 9.70385 19.7519 10.4351Z" fill="white"/>
<path d="M17.6902 17.4447H12.3063C10.1586 17.4447 8.41752 15.7036 8.41752 13.5559V9.90322C8.41752 9.77282 8.31181 9.66711 8.18142 9.66711C8.05102 9.66711 7.94531 9.77282 7.94531 9.90322V13.8337C7.94531 16.1348 9.81074 18.0002 12.1119 18.0002H19.001C19.1544 18.0002 19.2788 17.8759 19.2788 17.7225C19.2788 17.5691 19.1544 17.4447 19.001 17.4447H18.8066H17.6902Z" fill="white"/>
<path d="M16.7449 18.5559H11.361C9.21328 18.5559 7.47221 16.8148 7.47221 14.6671V11.0144C7.47221 10.884 7.3665 10.7783 7.23611 10.7783C7.10571 10.7783 7 10.884 7 11.0144V14.9449C7 17.246 8.86543 19.1114 11.1666 19.1114H18.0557C18.2091 19.1114 18.3335 18.9871 18.3335 18.8337C18.3335 18.6803 18.2091 18.5559 18.0557 18.5559H17.8613H16.7449Z" fill="white"/>
<path d="M10.0703 9.96197C10.0703 9.80857 10.1947 9.6842 10.3481 9.6842H11.2092C11.3626 9.6842 11.4869 9.80857 11.4869 9.96197C11.4869 10.1154 11.3626 10.2397 11.2092 10.2397H10.3481C10.1947 10.2397 10.0703 10.1154 10.0703 9.96197Z" fill="white"/>
<path d="M10.0703 15.5003C10.0703 15.3469 10.1947 15.2225 10.3481 15.2225H11.2092C11.3626 15.2225 11.4869 15.3469 11.4869 15.5003C11.4869 15.6537 11.3626 15.7781 11.2092 15.7781H10.3481C10.1947 15.7781 10.0703 15.6537 10.0703 15.5003Z" fill="white"/>
<path d="M17.625 9.96197C17.625 9.80857 17.7494 9.6842 17.9028 9.6842H18.7639C18.9173 9.6842 19.0416 9.80857 19.0416 9.96197C19.0416 10.1154 18.9173 10.2397 18.7639 10.2397H17.9028C17.7494 10.2397 17.625 10.1154 17.625 9.96197Z" fill="white"/>
<path d="M17.625 15.5003C17.625 15.3469 17.7494 15.2225 17.9028 15.2225H18.7639C18.9173 15.2225 19.0416 15.3469 19.0416 15.5003C19.0416 15.6537 18.9173 15.7781 18.7639 15.7781H17.9028C17.7494 15.7781 17.625 15.6537 17.625 15.5003Z" fill="white"/>
</svg>
