<svg width="116" height="132" viewBox="0 0 116 132" fill="none" xmlns="http://www.w3.org/2000/svg">
<mask id="mask0_325_9257" style="mask-type:alpha" maskUnits="userSpaceOnUse" x="0" y="-34" width="208" height="207">
<path d="M0.5 -34H207.5V173H0.5V-34Z" fill="#D9D9D9"/>
</mask>
<g mask="url(#mask0_325_9257)">
<path d="M75.343 143.027C73.6628 143.027 72.0148 142.704 70.3992 142.057C68.7835 141.41 67.2648 140.512 65.8431 139.362L13.4965 94.0805C11.4285 92.3555 10.4268 90.0914 10.4915 87.2883C10.5561 84.4852 11.6224 82.2211 13.6904 80.4961C15.1122 79.3461 16.6632 78.7711 18.3435 78.7711C20.0237 78.7711 21.5747 79.3461 22.9965 80.4961L75.343 125.562L127.69 80.4961C129.111 79.3461 130.662 78.7711 132.343 78.7711C134.023 78.7711 135.574 79.3461 136.996 80.4961C139.064 82.2211 140.13 84.4852 140.195 87.2883C140.259 90.0914 139.257 92.3555 137.189 94.0805L84.8429 139.362C83.4212 140.512 81.9025 141.41 80.2869 142.057C78.6712 142.704 77.0233 143.027 75.343 143.027ZM75.343 99.4711C73.6628 99.4711 72.0148 99.1477 70.3992 98.5008C68.7835 97.8539 67.2648 96.9555 65.8431 95.8055L13.4965 50.5242C12.4625 49.6617 11.687 48.6195 11.17 47.3977C10.653 46.1758 10.3945 44.918 10.3945 43.6242C10.3945 42.3305 10.653 41.0727 11.17 39.8508C11.687 38.6289 12.4625 37.5867 13.4965 36.7242L65.8431 -8.55703C67.2648 -9.70703 68.7835 -10.6055 70.3992 -11.2523C72.0148 -11.8992 73.6628 -12.2227 75.343 -12.2227C77.0233 -12.2227 78.6712 -11.8992 80.2869 -11.2523C81.9025 -10.6055 83.4212 -9.70703 84.8429 -8.55703L137.189 36.7242C138.223 37.5867 138.999 38.6289 139.516 39.8508C140.033 41.0727 140.292 42.3305 140.292 43.6242C140.292 44.918 140.033 46.1758 139.516 47.3977C138.999 48.6195 138.223 49.6617 137.189 50.5242L84.8429 95.8055C83.4212 96.9555 81.9025 97.8539 80.2869 98.5008C78.6712 99.1477 77.0233 99.4711 75.343 99.4711ZM75.343 82.0055L119.935 43.6242L75.343 5.24297L30.7515 43.6242L75.343 82.0055Z" fill="#351830" fill-opacity="0.25"/>
</g>
</svg>
