<svg width="25" height="17" viewBox="0 0 25 17" fill="none" xmlns="http://www.w3.org/2000/svg">
<path d="M14.1611 3.98335C12.6955 3.98335 11.5059 5.17219 11.5059 6.63863C11.5059 8.10506 12.6955 9.29475 14.1611 9.29475C15.6284 9.29475 16.8164 8.10591 16.8164 6.63863C16.8164 5.17135 15.6276 3.98335 14.1611 3.98335ZM14.1611 8.40881C13.1858 8.40881 12.391 7.61485 12.391 6.63778C12.391 5.66072 13.1849 4.8676 14.1611 4.8676C15.1382 4.8676 15.9313 5.66156 15.9313 6.63778C15.9313 7.614 15.1374 8.40881 14.1611 8.40881Z" fill="#ABEE24"/>
<path d="M3.54102 0V13.2764H24.7833V0H3.54102ZM23.899 2.99447V12.3913H4.42695V0.885094H23.899V2.99447Z" fill="#ABEE24"/>
<path d="M20.035 14.1623H2.65462V1.77103H1.76953V15.0474H23.0126V14.1623H22.1275H20.035Z" fill="#ABEE24"/>
<path d="M18.2655 15.9325H0.885094V3.54122H0V16.8176H21.2431V15.9325H20.358H18.2655Z" fill="#ABEE24"/>
<path d="M5.75391 1.79803H8.40919V2.68313H5.75391V1.79803Z" fill="#ABEE24"/>
<path d="M5.75391 10.622H8.40919V11.5071H5.75391V10.622Z" fill="#ABEE24"/>
<path d="M19.9141 1.79803H22.5693V2.68313H19.9141V1.79803Z" fill="#ABEE24"/>
<path d="M19.9141 10.622H22.5693V11.5071H19.9141V10.622Z" fill="#ABEE24"/>
</svg>
