<svg width="28" height="28" viewBox="0 0 28 28" fill="none" xmlns="http://www.w3.org/2000/svg">
<circle cx="14" cy="14" r="14" fill="#0F1535"/>
<path d="M19.2735 10.0486L17.1733 7.94863C17.0639 7.83927 16.9156 7.77783 16.7609 7.77783C16.6062 7.77783 16.4578 7.83927 16.3484 7.94863L8.99791 15.2987C8.93377 15.3626 8.88561 15.4408 8.85731 15.5268L7.80724 18.6768C7.77804 18.7645 7.77008 18.8578 7.78402 18.9491C7.79795 19.0405 7.83337 19.1272 7.88737 19.2021C7.94137 19.2771 8.01241 19.3381 8.09462 19.3803C8.17684 19.4224 8.26789 19.4444 8.36028 19.4445C8.42291 19.4444 8.48514 19.4344 8.54462 19.4147L11.6949 18.3647C11.7807 18.3361 11.8586 18.2878 11.9224 18.2236L19.2729 10.8735C19.3824 10.7642 19.4439 10.6159 19.444 10.4612C19.4441 10.3065 19.3828 10.1581 19.2735 10.0486ZM11.1955 17.3013L9.2826 17.9389L9.92023 16.0261L16.7609 9.18589L18.0362 10.4611L11.1955 17.3013Z" fill="white"/>
</svg>
