<svg width="18" height="18" viewBox="0 0 18 18" fill="none" xmlns="http://www.w3.org/2000/svg">
<path d="M1 8.78464C1 7.43107 1 6.75423 1.31367 6.15924C1.62734 5.56435 2.21642 5.12389 3.39457 4.24295L4.53743 3.38842C6.66694 1.79614 7.73166 1 9 1C10.2683 1 11.333 1.79614 13.4625 3.38842L14.6054 4.24295C15.7835 5.12389 16.3727 5.56435 16.6863 6.15924C17 6.75423 17 7.43107 17 8.78464V13.0122C17 14.892 17 15.832 16.3305 16.416C15.661 17 14.5835 17 12.4286 17H5.57143C3.41643 17 2.33894 17 1.66947 16.416C1 15.832 1 14.892 1 13.0122V8.78464Z" stroke="white" stroke-width="1.5"/>
<path d="M11.8569 16.9998V12.015C11.8569 11.4644 11.3452 11.0181 10.714 11.0181H7.28544C6.65426 11.0181 6.14258 11.4644 6.14258 12.015V16.9998" stroke="white" stroke-width="1.5" stroke-linecap="round" stroke-linejoin="round"/>
</svg>
