<svg width="28" height="28" viewBox="0 0 28 28" fill="none" xmlns="http://www.w3.org/2000/svg">
<circle cx="14" cy="14" r="14" fill="#0F1535"/>
<path fill-rule="evenodd" clip-rule="evenodd" d="M7.35986 9.79483C7.69205 9.31934 8.23265 9 8.85111 9H18.3711C18.9896 9 19.5302 9.31934 19.8624 9.79483C20.0895 10.12 20.2222 10.521 20.2222 10.9509V17.9379C20.2222 18.9919 19.4159 19.8889 18.3711 19.8889H8.85111C7.80632 19.8889 7 18.9919 7 17.9379V10.9509C7 10.521 7.13271 10.12 7.35986 9.79483ZM8.93884 10.3611L13.1218 15.101C13.3841 15.3982 13.8381 15.3982 14.1005 15.101L18.2834 10.3611H8.93884ZM18.9 11.6866L15.0791 16.0163C14.2921 16.908 12.9301 16.908 12.1431 16.0163L8.32222 11.6866V17.9379C8.32222 18.2873 8.58147 18.5278 8.85111 18.5278H18.3711C18.6408 18.5278 18.9 18.2873 18.9 17.9379V11.6866Z" fill="white"/>
</svg>
