<svg width="18" height="18" viewBox="0 0 18 18" fill="none" xmlns="http://www.w3.org/2000/svg">
<path d="M8.99989 8.46667C11.0752 8.46667 12.7576 6.7952 12.7576 4.73334C12.7576 2.67147 11.0752 1 8.99989 1C6.92457 1 5.24219 2.67147 5.24219 4.73334C5.24219 6.7952 6.92457 8.46667 8.99989 8.46667Z" stroke="white" stroke-linecap="round"/>
<path d="M1.32262 14.2779C2.00942 11.7771 4.61393 10.6001 7.22314 10.6001H10.7769C13.3861 10.6001 15.9906 11.7771 16.6774 14.2779C16.8182 14.7907 16.9307 15.3456 16.9945 15.935C17.0578 16.5208 16.5715 17.0001 15.9786 17.0001H2.02141C1.42847 17.0001 0.942219 16.5208 1.00556 15.935C1.06932 15.3456 1.18179 14.7907 1.32262 14.2779Z" stroke="white" stroke-linecap="round"/>
</svg>
