<svg width="18" height="18" viewBox="0 0 18 18" fill="none" xmlns="http://www.w3.org/2000/svg">
<path d="M9 17V9.79729M9 17L1.95717 13.0369C1.48794 12.7729 1.25333 12.6408 1.12666 12.447C1 12.2531 1 12.0259 1 11.5717V5.2956M9 17L16.0429 13.0369C16.512 12.7729 16.7466 12.6408 16.8734 12.447C17 12.2531 17 12.0259 17 11.5717V5.2956M9 9.79729L1 5.2956M9 9.79729L17 5.2956M1 5.2956L7.67143 1.5415C8.31303 1.1805 8.63371 1 9 1C9.36629 1 9.68697 1.1805 10.3286 1.5415L17 5.2956" stroke="white" stroke-linejoin="round"/>
</svg>
