<svg width="28" height="28" viewBox="0 0 28 28" fill="none" xmlns="http://www.w3.org/2000/svg">
<circle cx="14" cy="14" r="14" fill="#0F1535"/>
<path fill-rule="evenodd" clip-rule="evenodd" d="M16.9571 20.1709C15.6733 19.8493 13.0451 18.9425 10.6624 16.5598C8.27973 14.1772 7.37292 11.5489 7.05126 10.2651C6.86641 9.52731 7.19928 8.81536 7.7637 8.4122L9.24337 7.3553C10.1091 6.7369 11.3135 6.94674 11.9191 7.82151L12.8507 9.16708C13.2461 9.73825 13.1097 10.5211 12.5444 10.9249L11.8016 11.4554C11.914 11.8854 12.2637 12.7685 13.3587 13.8635C14.4537 14.9585 15.3368 15.3081 15.7668 15.4206L16.2973 14.6778C16.7011 14.1125 17.484 13.9761 18.0551 14.3715L19.4007 15.3031C20.2755 15.9087 20.4853 17.113 19.8669 17.9788L18.81 19.4585C18.4068 20.0229 17.6949 20.3558 16.9571 20.1709ZM11.5612 15.6611C13.728 17.8278 16.1191 18.6506 17.266 18.938C17.4337 18.98 17.6363 18.9148 17.7757 18.7197L18.8326 17.24C19.0387 16.9515 18.9688 16.55 18.6772 16.3481L17.3317 15.4166L16.7623 16.2137C16.5296 16.5395 16.0993 16.795 15.5982 16.6869C14.9729 16.5519 13.8169 16.1192 12.4599 14.7623C11.103 13.4054 10.6703 12.2494 10.5354 11.624C10.4273 11.1229 10.6828 10.6926 11.0085 10.4599L11.8056 9.89058L10.8741 8.545C10.6722 8.25341 10.2707 8.18347 9.98216 8.3896L8.50249 9.44651C8.30736 9.58588 8.24221 9.78855 8.28421 9.95619C8.57159 11.1032 9.3944 13.4943 11.5612 15.6611Z" fill="white"/>
</svg>
