<svg width="28" height="28" viewBox="0 0 28 28" fill="none" xmlns="http://www.w3.org/2000/svg">
<circle cx="14" cy="14" r="14" fill="#0F1535"/>
<path d="M10.5586 20H17.5586C17.8919 20 18.0586 20.1667 18.0586 20.5C18.0586 20.8333 17.8919 21 17.5586 21H10.5586C10.2253 21 10.0586 20.8333 10.0586 20.5C10.0586 20.1667 10.2253 20 10.5586 20Z" fill="white"/>
<path d="M18.5586 12.5C18.5586 11.3065 18.0845 10.1619 17.2406 9.31802C16.3967 8.47411 15.2521 8 14.0586 8C12.8651 8 11.7205 8.47411 10.8766 9.31802C10.0327 10.1619 9.55859 11.3065 9.55859 12.5C9.55859 14.346 11.0356 16.752 14.0586 19.634C17.0816 16.752 18.5586 14.346 18.5586 12.5ZM14.0586 21C10.3916 17.667 8.55859 14.833 8.55859 12.5C8.55859 11.0413 9.13806 9.64236 10.1695 8.61091C11.201 7.57946 12.5999 7 14.0586 7C15.5173 7 16.9162 7.57946 17.9477 8.61091C18.9791 9.64236 19.5586 11.0413 19.5586 12.5C19.5586 14.833 17.7256 17.667 14.0586 21Z" fill="white"/>
<path d="M14.0586 14C14.4564 14 14.8379 13.842 15.1193 13.5607C15.4006 13.2794 15.5586 12.8978 15.5586 12.5C15.5586 12.1022 15.4006 11.7206 15.1193 11.4393C14.8379 11.158 14.4564 11 14.0586 11C13.6608 11 13.2792 11.158 12.9979 11.4393C12.7166 11.7206 12.5586 12.1022 12.5586 12.5C12.5586 12.8978 12.7166 13.2794 12.9979 13.5607C13.2792 13.842 13.6608 14 14.0586 14ZM14.0586 15C13.3956 15 12.7597 14.7366 12.2908 14.2678C11.822 13.7989 11.5586 13.163 11.5586 12.5C11.5586 11.837 11.822 11.2011 12.2908 10.7322C12.7597 10.2634 13.3956 10 14.0586 10C14.7216 10 15.3575 10.2634 15.8264 10.7322C16.2952 11.2011 16.5586 11.837 16.5586 12.5C16.5586 13.163 16.2952 13.7989 15.8264 14.2678C15.3575 14.7366 14.7216 15 14.0586 15Z" fill="white"/>
</svg>
