<svg width="16" height="16" viewBox="0 0 16 16" fill="none" xmlns="http://www.w3.org/2000/svg">
<path d="M1.61538 16C1.15513 16 0.770833 15.8458 0.4625 15.5375C0.154167 15.2292 0 14.8449 0 14.3846V1.61537C0 1.15512 0.154167 0.770833 0.4625 0.4625C0.770833 0.154167 1.15513 0 1.61538 0H10.9058C11.1212 0 11.3305 0.0435921 11.5337 0.130775C11.7369 0.217942 11.9109 0.333966 12.0558 0.47885L15.5212 3.94422C15.666 4.08909 15.7821 4.26313 15.8692 4.46635C15.9564 4.66955 16 4.87884 16 5.09422V14.3846C16 14.8449 15.8458 15.2292 15.5375 15.5375C15.2292 15.8458 14.8449 16 14.3846 16H1.61538ZM1.61538 15H14.3846C14.5641 15 14.7115 14.9423 14.8269 14.8269C14.9423 14.7115 15 14.5641 15 14.3846V5H11.8077C11.5757 5 11.383 4.9234 11.2298 4.7702C11.0766 4.61698 11 4.42435 11 4.1923V1H1.61538C1.43589 1 1.28846 1.05769 1.17308 1.17307C1.05769 1.28846 1 1.43589 1 1.61537V14.3846C1 14.5641 1.05769 14.7115 1.17308 14.8269C1.28846 14.9423 1.43589 15 1.61538 15ZM12 12C12.1423 12 12.2612 11.9522 12.3567 11.8567C12.4522 11.7612 12.5 11.6423 12.5 11.5C12.5 11.3577 12.4522 11.2388 12.3567 11.1433C12.2612 11.0478 12.1423 11 12 11H4C3.85768 11 3.73877 11.0478 3.64327 11.1433C3.54776 11.2388 3.5 11.3577 3.5 11.5C3.5 11.6423 3.54776 11.7612 3.64327 11.8567C3.73877 11.9522 3.85768 12 4 12H12ZM7.5 5C7.6423 5 7.76121 4.95224 7.85673 4.85672C7.95224 4.76121 8 4.6423 8 4.5C8 4.35768 7.95224 4.23878 7.85673 4.14328C7.76121 4.04776 7.6423 4 7.5 4H4C3.85768 4 3.73877 4.04776 3.64327 4.14328C3.54776 4.23878 3.5 4.35768 3.5 4.5C3.5 4.6423 3.54776 4.76121 3.64327 4.85672C3.73877 4.95224 3.85768 5 4 5H7.5ZM12 8.5C12.1423 8.5 12.2612 8.45224 12.3567 8.35673C12.4522 8.26123 12.5 8.14232 12.5 8C12.5 7.85768 12.4522 7.73877 12.3567 7.64327C12.2612 7.54776 12.1423 7.5 12 7.5H4C3.85768 7.5 3.73877 7.54776 3.64327 7.64327C3.54776 7.73877 3.5 7.85768 3.5 8C3.5 8.14232 3.54776 8.26123 3.64327 8.35673C3.73877 8.45224 3.85768 8.5 4 8.5H12Z" fill="white"/>
</svg>
