<svg width="12" height="12" viewBox="0 0 12 12" fill="none" xmlns="http://www.w3.org/2000/svg">
<path d="M10.8119 8.32259C10.8119 8.00192 11.0779 7.74194 11.4059 7.74194C11.734 7.74194 12 8.00192 12 8.32259H10.8119ZM0 8.32259C0 8.00192 0.265981 7.74194 0.59406 7.74194C0.922139 7.74194 1.18812 8.00192 1.18812 8.32259H0ZM5.53156 0.937781C5.32982 0.68493 5.37592 0.320061 5.63461 0.122828C5.89331 -0.0743977 6.26661 -0.0293008 6.46844 0.223558L5.53156 0.937781ZM9.55753 4.09452C9.75931 4.34737 9.71317 4.71222 9.45447 4.90949C9.19578 5.10667 8.82248 5.06161 8.62069 4.80876L9.55753 4.09452ZM5.53156 0.223558C5.73339 -0.0293008 6.10669 -0.0743977 6.36539 0.122828C6.62408 0.320061 6.67018 0.68493 6.46844 0.937781L5.53156 0.223558ZM3.37933 4.80876C3.1775 5.06161 2.8042 5.10667 2.5455 4.90949C2.28681 4.71222 2.24071 4.34737 2.44246 4.09452L3.37933 4.80876ZM5.40594 0.580669C5.40594 0.259991 5.67192 2.54982e-05 6 2.54982e-05C6.32808 2.54982e-05 6.59406 0.259991 6.59406 0.580669H5.40594ZM6.59406 9.09678C6.59406 9.41745 6.32808 9.67742 6 9.67742C5.67192 9.67742 5.40594 9.41745 5.40594 9.09678H6.59406ZM12 8.32259V9.09678H10.8119V8.32259H12ZM12 9.09678C12 10.6863 10.7108 12 9.08911 12V10.8387C10.0265 10.8387 10.8119 10.0728 10.8119 9.09678H12ZM9.08911 12H2.91089V10.8387H9.08911V12ZM2.91089 12C1.28919 12 0 10.6863 0 9.09678H1.18812C1.18812 10.0728 1.97354 10.8387 2.91089 10.8387V12ZM0 9.09678V8.32259H1.18812V9.09678H0ZM6.46844 0.223558L9.55753 4.09452L8.62069 4.80876L5.53156 0.937781L6.46844 0.223558ZM6.46844 0.937781L3.37933 4.80876L2.44246 4.09452L5.53156 0.223558L6.46844 0.937781ZM6.59406 0.580669V9.09678H5.40594V0.580669H6.59406Z" fill="black"/>
</svg>
