<svg width="28" height="28" viewBox="0 0 28 28" fill="none" xmlns="http://www.w3.org/2000/svg">
<circle cx="14" cy="14" r="14" fill="#0F1535"/>
<path fill-rule="evenodd" clip-rule="evenodd" d="M14.1896 7.91531C14.0137 7.82525 13.8142 7.77783 13.6111 7.77783C13.408 7.77783 13.2085 7.82525 13.0326 7.91531L7.57847 10.7077C7.40265 10.7977 7.25663 10.9272 7.15509 11.0831C7.05355 11.2391 7.00006 11.4159 7 11.596V17.1813C7 17.5478 7.22081 17.8867 7.57847 18.0696L13.0326 20.8626C13.2085 20.9526 13.408 21.0001 13.6111 21.0001C13.8142 21.0001 14.0137 20.9526 14.1896 20.8626L19.6438 18.0702C19.8197 17.9801 19.9658 17.8506 20.0673 17.6945C20.1688 17.5385 20.2223 17.3615 20.2222 17.1813V11.596C20.2222 11.4159 20.1687 11.2391 20.0671 11.0831C19.9656 10.9272 19.8196 10.7977 19.6438 10.7077L14.1896 7.91531ZM13.5285 8.67643C13.5536 8.66357 13.5821 8.65679 13.6111 8.65679C13.6401 8.65679 13.6686 8.66357 13.6937 8.67643L18.7347 11.2577L13.6111 13.8811L8.4875 11.2577L13.5285 8.67643ZM7.99167 12.02V17.1819C7.99167 17.2346 8.0234 17.2827 8.07431 17.3085L13.1153 19.8898V14.6434L7.99167 12.02ZM14.1069 19.8898L19.1479 17.3085C19.173 17.2957 19.1938 17.2772 19.2083 17.255C19.2228 17.2328 19.2305 17.2076 19.2306 17.1819V12.0194L14.1069 14.6428V19.8892V19.8898Z" fill="white"/>
</svg>
