<svg width="23" height="23" viewBox="0 0 23 23" fill="none" xmlns="http://www.w3.org/2000/svg">
<mask id="mask0_325_7634" style="mask-type:alpha" maskUnits="userSpaceOnUse" x="0" y="0" width="23" height="23">
<rect x="0.5" y="0.5" width="22" height="22" fill="#D9D9D9"/>
</mask>
<g mask="url(#mask0_325_7634)">
<path d="M8.57676 20.5435L6.94088 17.7864L3.8348 17.106L4.13801 13.9083L2.0332 11.5003L4.13801 9.09228L3.8348 5.89453L6.94088 5.21409L8.57676 2.45703L11.4995 3.69806L14.4223 2.45703L16.0581 5.21409L19.1642 5.89453L18.861 9.09228L20.9658 11.5003L18.861 13.9083L19.1642 17.106L16.0581 17.7864L14.4223 20.5435L11.4995 19.3025L8.57676 20.5435ZM9.16201 18.7878L11.4995 17.7971L13.8652 18.7878L15.1662 16.5878L17.687 16.0096L17.4578 13.4253L19.1537 11.5003L17.4578 9.54706L17.687 6.96277L15.1662 6.41277L13.837 4.21277L11.4995 5.20348L9.13379 4.21277L7.83284 6.41277L5.31201 6.96277L5.54117 9.54706L3.84534 11.5003L5.54117 13.4253L5.31201 16.0378L7.83284 16.5878L9.16201 18.7878ZM10.537 14.4371L15.3988 9.57527L14.4328 8.58105L10.537 12.4769L8.56617 10.5343L7.60017 11.5003L10.537 14.4371Z" fill="black"/>
</g>
</svg>
