<svg width="18" height="18" viewBox="0 0 18 18" fill="none" xmlns="http://www.w3.org/2000/svg">
<path d="M4.30273 4.96045H7.47733" stroke="white" stroke-linecap="round" stroke-linejoin="round"/>
<path d="M16.0682 6.06934H13.9909C12.5667 6.06934 11.4121 7.41687 11.4121 9.07924C11.4121 10.7416 12.5667 12.0891 13.9909 12.0891H16.0682C16.1347 12.0891 16.1679 12.0891 16.196 12.087C16.6265 12.054 16.9693 11.6539 16.9976 11.1515C16.9994 11.1186 16.9994 11.0798 16.9994 11.0023V7.15621C16.9994 7.07866 16.9994 7.03979 16.9976 7.00702C16.9693 6.50461 16.6265 6.10441 16.196 6.07148C16.1679 6.06934 16.1347 6.06934 16.0682 6.06934Z" stroke="white"/>
<path d="M16.2381 6C16.1756 4.1277 15.9742 2.97975 15.3248 2.17157C14.3836 1 12.8684 1 9.83833 1H7.42787C4.39774 1 2.88268 1 1.94134 2.17157C1 3.34315 1 5.22876 1 9C1 12.7712 1 14.6569 1.94134 15.8284C2.88268 17 4.39774 17 7.42787 17H9.83833C12.8684 17 14.3836 17 15.3248 15.8284C15.9742 15.0203 16.1756 13.8723 16.2381 12" stroke="white"/>
</svg>
