<svg width="27" height="24" viewBox="0 0 27 24" fill="none" xmlns="http://www.w3.org/2000/svg">
<path fill-rule="evenodd" clip-rule="evenodd" d="M13.0659 4.18774C13.3923 4.15161 13.701 4.3848 13.7554 4.70864L14.8712 11.3425C14.9257 11.6663 14.7053 11.9581 14.3789 11.9942C14.0525 12.0304 13.7438 11.7972 13.6893 11.4733L12.8116 6.25509L6.22492 14.9745C6.03265 15.2291 5.65845 15.2705 5.38915 15.0671C5.11985 14.8636 5.05741 14.4924 5.24968 14.2378L11.8364 5.51839L6.57694 6.10065C6.25055 6.13679 5.9418 5.90356 5.88734 5.57972C5.83288 5.25589 6.0533 4.96409 6.37968 4.92796L13.0659 4.18774Z" fill="#32CD32"/>
<path fill-rule="evenodd" clip-rule="evenodd" d="M13.6739 19.9388C13.3457 19.9508 13.0551 19.6955 13.0246 19.3685L12.4005 12.6705C12.37 12.3435 12.6113 12.0688 12.9395 12.0568C13.2676 12.0448 13.5583 12.3001 13.5888 12.627L14.0798 17.8958L21.2908 9.68517C21.5013 9.4455 21.8775 9.43174 22.1311 9.65445C22.3847 9.87716 22.4196 10.252 22.2091 10.4917L14.9981 18.7023L20.2861 18.509C20.6143 18.497 20.905 18.7524 20.9355 19.0793C20.9659 19.4063 20.7246 19.6811 20.3965 19.6931L13.6739 19.9388Z" fill="#32CD32"/>
</svg>
