<svg width="23" height="12" viewBox="0 0 23 12" fill="none" xmlns="http://www.w3.org/2000/svg">
<path d="M5.49425 1.55542C5.19017 1.55542 4.94368 1.30866 4.94368 1.00427C4.94368 0.699885 5.19017 0.453125 5.49425 0.453125H9.89885C10.507 0.453125 11 0.946639 11 1.55542V5.9646C11 6.26899 10.7535 6.51574 10.4494 6.51574C10.1453 6.51574 9.89885 6.26899 9.89885 5.9646V2.3234L0.93989 11.2917C0.72488 11.5069 0.376272 11.5069 0.161262 11.2917C-0.053754 11.0764 -0.053754 10.7275 0.161262 10.5122L9.10878 1.55542H5.49425Z" fill="#32CD32"/>
<path d="M17.1479 10.3421C17.4514 10.3219 17.7136 10.5518 17.7338 10.8556C17.754 11.1593 17.5243 11.4218 17.2209 11.442L12.826 11.7336C12.2192 11.7739 11.6946 11.3141 11.6543 10.7067L11.3623 6.30717C11.3421 6.00344 11.5718 5.74091 11.8752 5.72077C12.1786 5.70064 12.4409 5.93052 12.461 6.23425L12.7022 9.86745L21.0476 0.325571C21.2479 0.0965834 21.5957 0.0734987 21.8245 0.274011C22.0533 0.474579 22.0764 0.822744 21.8761 1.05179L13.5413 10.5814L17.1479 10.3421Z" fill="#32CD32"/>
</svg>
